<svg version="1.1" id="Layer_1" xmlns="http://www.w3.org/2000/svg" xmlns:xlink="http://www.w3.org/1999/xlink" x="0px" y="0px"
	 width="100%" viewBox="0 0 1080 1080" enable-background="new 0 0 1080 1080" xml:space="preserve">
<path fill="#B1B2B6" opacity="1.000000" stroke="none" 
	d="
M638.000000,1081.000000 
	C425.357819,1081.000000 213.215637,1081.000000 1.036724,1081.000000 
	C1.036724,721.066040 1.036724,361.132050 1.036724,1.099037 
	C360.892395,1.099037 720.784790,1.099037 1080.838623,1.099037 
	C1080.838623,360.999939 1080.838623,720.999939 1080.838623,1081.000000 
	C933.464905,1081.000000 785.982483,1081.000000 638.000000,1081.000000 
M865.424744,381.015686 
	C897.252197,299.443024 929.079651,217.870346 961.400696,135.032730 
	C680.021423,230.015411 399.836334,324.595001 118.443199,419.582397 
	C121.038078,420.887726 122.433792,421.668335 123.890343,422.311096 
	C173.567520,444.233246 223.236206,466.174744 272.947937,488.018280 
	C280.390717,491.288666 287.793243,495.349762 295.637024,496.882629 
	C323.573669,502.342133 351.664948,507.039703 379.768005,511.591766 
	C384.943451,512.430115 386.162628,514.323425 386.150269,519.223145 
	C386.001404,578.219727 386.055511,637.216797 386.056671,696.213745 
	C386.056702,698.267273 386.056671,700.320801 386.056671,703.912781 
	C425.330444,671.599487 463.299927,640.359314 501.500214,608.929260 
	C503.344879,611.344727 504.763458,613.178162 506.156921,615.030457 
	C529.994080,646.717102 554.002808,678.276428 577.621582,710.124939 
	C612.429565,757.061218 649.990479,802.074158 678.424622,853.496948 
	C678.778320,854.136719 679.388489,854.634705 680.318237,855.704102 
	C742.091797,697.295959 803.620667,539.515503 865.424744,381.015686 
M232.417969,902.917297 
	C217.840027,917.643188 203.262085,932.369141 188.684128,947.095032 
	C188.872498,947.478516 189.060852,947.861938 189.249207,948.245422 
	C198.288513,947.348022 207.331863,946.489258 216.366364,945.545837 
	C240.198639,943.057190 264.015045,940.405334 287.868134,938.137695 
	C292.162476,937.729431 295.278839,936.355835 298.270844,933.309204 
	C339.588379,891.238403 380.983429,849.243591 422.400116,807.270203 
	C456.330963,772.883484 490.292847,738.527222 524.303833,704.219788 
	C528.967224,699.515747 533.993530,695.171509 538.991760,690.530762 
	C524.418396,671.460999 510.723541,653.540833 496.747589,635.252747 
	C494.620667,637.249207 493.011780,638.659668 491.514160,640.179749 
	C455.975677,676.251221 420.457520,712.342712 384.917572,748.412720 
	C360.483246,773.211609 336.026855,797.988708 311.570862,822.766174 
	C285.359222,849.322449 259.136505,875.867798 232.417969,902.917297 
M369.042267,679.500854 
	C369.042267,673.310974 369.042267,667.121033 369.042267,660.931152 
	C361.729736,667.276978 355.583496,673.810181 349.498047,680.399475 
	C298.761230,735.337036 248.021301,790.271729 197.368484,845.286560 
	C195.672165,847.128906 194.331497,849.685059 193.772781,852.125427 
	C190.355225,867.052734 187.209152,882.042175 183.978729,897.012268 
	C183.349472,899.928406 182.747116,902.850281 182.132355,905.769531 
	C182.597214,906.026245 183.062088,906.282959 183.526962,906.539673 
	C184.407227,905.345154 185.183578,904.054932 186.182892,902.969971 
	C215.632996,870.996826 245.080124,839.020935 274.581055,807.094727 
	C305.101074,774.065491 335.707611,741.116089 366.141785,708.008057 
	C367.748718,706.260010 368.779510,703.396423 368.910095,700.988708 
	C369.279572,694.176941 369.041260,687.332214 369.042267,679.500854 
M256.910431,758.408630 
	C263.545563,751.162231 270.157532,743.894470 276.819763,736.673035 
	C306.293365,704.725525 335.757263,672.768921 365.305328,640.890381 
	C367.965302,638.020630 369.285492,635.093079 369.120087,631.109863 
	C368.836884,624.290771 369.041626,617.451416 369.041534,610.620605 
	C369.041473,604.719666 369.041534,598.818726 369.041534,592.917786 
	C368.386047,592.505615 367.730530,592.093506 367.075043,591.681396 
	C366.130066,593.221497 365.395416,594.950562 364.207703,596.272644 
	C351.409210,610.518982 338.539215,624.700989 325.689087,638.900940 
	C294.289520,673.598816 262.867371,708.276367 231.565811,743.062439 
	C230.172668,744.610718 229.223907,747.133667 229.180496,749.225647 
	C228.949020,760.383362 229.057800,771.548584 229.092026,782.710999 
	C229.095840,783.956726 229.372665,785.201660 229.680435,787.752930 
	C239.111847,777.577576 247.762909,768.244080 256.910431,758.408630 
z"/>
<path fill="#F2F5F9" opacity="1.000000" stroke="none" 
	d="
M865.287109,381.375366 
	C803.620667,539.515503 742.091797,697.295959 680.318237,855.704102 
	C679.388489,854.634705 678.778320,854.136719 678.424622,853.496948 
	C649.990479,802.074158 612.429565,757.061218 577.621582,710.124939 
	C554.002808,678.276428 529.994080,646.717102 506.156921,615.030457 
	C504.763458,613.178162 503.344879,611.344727 501.500214,608.929260 
	C463.299927,640.359314 425.330444,671.599487 386.056671,703.912781 
	C386.056671,700.320801 386.056702,698.267273 386.056671,696.213745 
	C386.055511,637.216797 386.001404,578.219727 386.150269,519.223145 
	C386.162628,514.323425 384.943451,512.430115 379.768005,511.591766 
	C351.664948,507.039703 323.573669,502.342133 295.637024,496.882629 
	C287.793243,495.349762 280.390717,491.288666 272.947937,488.018280 
	C223.236206,466.174744 173.567520,444.233246 123.890343,422.311096 
	C122.433792,421.668335 121.038078,420.887726 118.443199,419.582397 
	C399.836334,324.595001 680.021423,230.015411 961.400696,135.032730 
	C929.079651,217.870346 897.252197,299.443024 865.287109,381.375366 
M634.948242,780.041870 
	C634.948242,780.041870 634.837769,780.032837 634.749329,780.674194 
	C635.163391,781.142090 635.577454,781.609985 636.002197,782.000122 
	C636.002197,782.000122 635.924438,781.988831 636.158203,782.700256 
	C636.603638,782.851990 637.049072,783.003723 637.064758,783.716858 
	C641.303406,789.362122 645.542053,795.007385 650.014038,801.250183 
	C659.726685,817.102417 669.439270,832.954712 679.530823,849.425354 
	C682.704712,841.160034 685.589905,833.646545 688.841919,825.545471 
	C691.001404,819.994080 693.214844,814.463013 695.308594,808.886963 
	C699.023926,798.992798 702.666565,789.071350 706.885925,778.692871 
	C709.484619,772.097290 712.111206,765.512512 714.675903,758.903748 
	C719.447449,746.608032 724.182983,734.298279 729.254883,721.320496 
	C733.021301,711.896362 736.888916,702.511169 740.527893,693.038086 
	C744.861145,681.757812 748.998108,670.402100 753.805542,658.672058 
	C754.228149,657.596375 754.656006,656.522705 755.072632,655.444702 
	C762.429504,636.409424 769.785095,617.373535 777.695190,597.783813 
	C779.487000,592.980774 781.230896,588.159119 783.079407,583.377991 
	C789.107605,567.786926 795.174011,552.210571 801.739746,536.019165 
	C805.100952,527.467896 808.543335,518.947449 811.802490,510.357483 
	C815.739258,499.981628 819.520813,489.546814 823.910217,478.667786 
	C828.168213,467.983887 832.468140,457.316467 836.673645,446.611938 
	C841.965271,433.142914 847.175049,419.641754 852.428589,406.157776 
	C861.015747,384.117615 869.615845,362.082458 878.198914,340.040680 
	C885.888611,320.293060 893.579529,300.545898 901.236938,280.785797 
	C905.579956,269.578552 909.856750,258.345612 914.661926,246.597748 
	C920.557861,231.458969 926.487610,216.333252 932.340576,201.177856 
	C938.666870,184.796722 944.921509,168.387878 951.059204,151.959366 
	C951.059204,151.959366 951.027222,152.107544 951.626038,151.804398 
	C951.775024,151.150757 951.924072,150.497116 952.639404,149.397125 
	C953.636597,146.566711 954.633728,143.736313 956.054871,139.702560 
	C947.677612,142.763199 940.578674,145.356812 932.728333,147.929169 
	C932.129333,148.266647 931.530273,148.604141 930.998108,148.948288 
	C930.998108,148.948288 930.974792,148.885284 930.191956,148.784821 
	C929.231323,149.049072 928.254639,149.265945 927.312256,149.584320 
	C804.886292,190.945923 682.468689,232.332123 560.037781,273.679047 
	C422.483307,320.133453 284.916504,366.551392 147.357285,412.991699 
	C140.808487,415.202606 134.280945,417.476532 126.630165,420.103363 
	C129.402496,421.408112 131.000092,422.201050 132.629974,422.920868 
	C158.955536,434.546661 185.269089,446.199860 211.619644,457.768768 
	C228.977097,465.389404 246.389175,472.885590 264.314606,480.874023 
	C273.358429,484.892517 282.379181,488.964539 291.467651,492.879364 
	C293.069733,493.569427 294.954773,493.602631 297.489014,494.259613 
	C328.001343,499.512482 358.513641,504.765350 389.012604,510.953125 
	C389.012604,572.851074 389.012604,634.749023 389.012604,697.612671 
	C427.171967,666.204651 464.502167,635.479065 501.971832,604.638672 
	C502.922729,605.861267 503.537323,606.628967 504.128326,607.414429 
	C537.167603,651.330444 570.175659,695.269958 603.261108,739.151123 
	C612.661804,751.619263 622.287415,763.917786 631.911499,776.222046 
	C631.911499,776.222046 631.842041,776.118652 631.786865,776.774353 
	C632.500977,777.548645 633.215088,778.322876 633.956970,779.032227 
	C633.956970,779.032227 633.886658,779.039307 633.969421,779.642700 
	C634.291748,779.812500 634.614136,779.982300 634.948242,780.041870 
z"/>
<path fill="#FAF7F4" opacity="1.000000" stroke="none" 
	d="
M232.668289,902.667603 
	C259.136505,875.867798 285.359222,849.322449 311.570862,822.766174 
	C336.026855,797.988708 360.483246,773.211609 384.917572,748.412720 
	C420.457520,712.342712 455.975677,676.251221 491.514160,640.179749 
	C493.011780,638.659668 494.620667,637.249207 496.747589,635.252747 
	C510.723541,653.540833 524.418396,671.460999 538.991760,690.530762 
	C533.993530,695.171509 528.967224,699.515747 524.303833,704.219788 
	C490.292847,738.527222 456.330963,772.883484 422.400116,807.270203 
	C380.983429,849.243591 339.588379,891.238403 298.270844,933.309204 
	C295.278839,936.355835 292.162476,937.729431 287.868134,938.137695 
	C264.015045,940.405334 240.198639,943.057190 216.366364,945.545837 
	C207.331863,946.489258 198.288513,947.348022 189.249207,948.245422 
	C189.060852,947.861938 188.872498,947.478516 188.684128,947.095032 
	C203.262085,932.369141 217.840027,917.643188 232.668289,902.667603 
M270.900208,868.070251 
	C267.550568,871.499878 264.221893,874.950317 260.847809,878.355774 
	C244.234360,895.124268 227.596451,911.868530 210.995316,928.649170 
	C206.157486,933.539246 201.412552,938.521179 196.625046,943.461060 
	C196.797775,943.854614 196.970520,944.248108 197.143250,944.641663 
	C222.140640,941.967834 247.138046,939.294067 273.039795,936.700012 
	C278.500458,936.123535 283.976044,935.655396 289.412872,934.905945 
	C291.094086,934.674194 293.069275,934.086548 294.225647,932.959778 
	C299.702484,927.623169 304.942657,922.043640 310.853943,916.185608 
	C322.919830,903.834656 334.985748,891.483643 347.664185,878.848511 
	C359.963531,866.312378 372.262878,853.776184 385.111786,840.915894 
	C397.091522,828.658386 409.071259,816.400879 421.661713,803.853699 
	C430.552917,794.905396 439.486786,785.999023 448.324921,776.998596 
	C460.294922,764.808838 472.191437,752.546936 484.726013,739.993958 
	C501.251984,723.228699 517.777954,706.463440 534.454102,689.545837 
	C521.634399,672.751404 509.101532,656.332642 496.187195,639.414185 
	C491.415558,644.535767 487.140747,649.124023 482.268616,654.038086 
	C470.281860,666.077026 458.256165,678.077637 446.320831,690.167297 
	C437.083038,699.524597 427.958282,708.993408 418.195831,718.794739 
	C406.076904,731.174316 393.958008,743.553894 381.240234,756.208069 
	C368.986053,768.705078 356.731873,781.202087 343.934875,794.048462 
	C332.164581,806.076965 320.394318,818.105469 308.017426,830.498108 
	C295.825531,842.911011 283.633636,855.323914 270.900208,868.070251 
z"/>
<path fill="#FAF7F4" opacity="1.000000" stroke="none" 
	d="
M369.042297,680.000610 
	C369.041260,687.332214 369.279572,694.176941 368.910095,700.988708 
	C368.779510,703.396423 367.748718,706.260010 366.141785,708.008057 
	C335.707611,741.116089 305.101074,774.065491 274.581055,807.094727 
	C245.080124,839.020935 215.632996,870.996826 186.182892,902.969971 
	C185.183578,904.054932 184.407227,905.345154 183.526962,906.539673 
	C183.062088,906.282959 182.597214,906.026245 182.132355,905.769531 
	C182.747116,902.850281 183.349472,899.928406 183.978729,897.012268 
	C187.209152,882.042175 190.355225,867.052734 193.772781,852.125427 
	C194.331497,849.685059 195.672165,847.128906 197.368484,845.286560 
	C248.021301,790.271729 298.761230,735.337036 349.498047,680.399475 
	C355.583496,673.810181 361.729736,667.276978 369.042267,660.931152 
	C369.042267,667.121033 369.042267,673.310974 369.042297,680.000610 
M340.789520,731.083923 
	C345.642670,725.850464 350.028748,720.060120 355.454468,715.509277 
	C364.410919,707.997192 367.671509,699.001648 366.248322,687.539490 
	C365.470825,681.277710 366.109436,674.840088 366.109436,668.481689 
	C365.705597,668.365784 365.301727,668.249817 364.897888,668.133911 
	C355.552734,678.404846 346.207550,688.675842 336.266113,699.239197 
	C327.395935,708.916260 318.525787,718.593262 309.084656,728.675171 
	C299.293274,739.402039 289.501892,750.128906 279.129364,761.155029 
	C269.980804,771.126465 260.832245,781.097900 251.072357,791.446411 
	C241.725021,801.675232 232.377686,811.904053 222.450729,822.459778 
	C215.684784,829.745789 209.038254,837.148010 202.102661,844.268799 
	C198.617538,847.847046 196.464844,851.704163 195.603195,856.721741 
	C194.144516,865.215820 191.956329,873.583313 190.136536,882.017273 
	C189.200150,886.357056 188.396896,890.725647 187.533478,895.081177 
	C188.000763,895.276001 188.468033,895.470825 188.935318,895.665649 
	C200.961304,882.456665 212.987305,869.247681 225.611801,855.730713 
	C234.811142,845.683228 244.010498,835.635742 253.814453,825.226074 
	C263.300903,814.860474 272.787354,804.494934 282.824860,793.777527 
	C292.799835,782.941895 302.774811,772.106262 313.235138,760.887085 
	C322.233459,751.087769 331.231812,741.288513 340.789520,731.083923 
M187.551102,896.096069 
	C187.437958,896.210083 187.238358,896.322388 187.236038,896.438660 
	C187.233704,896.554688 187.428970,896.674805 187.537628,896.793091 
	C187.650803,896.679077 187.763977,896.565063 187.551102,896.096069 
z"/>
<path fill="#FAF7F4" opacity="1.000000" stroke="none" 
	d="
M256.662201,758.659668 
	C247.762909,768.244080 239.111847,777.577576 229.680435,787.752930 
	C229.372665,785.201660 229.095840,783.956726 229.092026,782.710999 
	C229.057800,771.548584 228.949020,760.383362 229.180496,749.225647 
	C229.223907,747.133667 230.172668,744.610718 231.565811,743.062439 
	C262.867371,708.276367 294.289520,673.598816 325.689087,638.900940 
	C338.539215,624.700989 351.409210,610.518982 364.207703,596.272644 
	C365.395416,594.950562 366.130066,593.221497 367.075043,591.681396 
	C367.730530,592.093506 368.386047,592.505615 369.041534,592.917786 
	C369.041534,598.818726 369.041473,604.719666 369.041534,610.620605 
	C369.041626,617.451416 368.836884,624.290771 369.120087,631.109863 
	C369.285492,635.093079 367.965302,638.020630 365.305328,640.890381 
	C335.757263,672.768921 306.293365,704.725525 276.819763,736.673035 
	C270.157532,743.894470 263.545563,751.162231 256.662201,758.659668 
M348.095306,654.919495 
	C349.898529,652.967102 351.464600,650.704529 353.544800,649.114441 
	C364.301392,640.892456 368.023132,630.164673 366.231354,616.903503 
	C365.496674,611.466064 366.109802,605.846619 366.109802,600.309937 
	C365.689453,600.197205 365.269135,600.084473 364.848785,599.971741 
	C358.167511,607.523865 351.486206,615.076050 344.229004,622.994324 
	C336.037323,632.082031 327.845642,641.169800 319.084259,650.667053 
	C310.921204,659.816711 302.758118,668.966309 294.009796,678.505676 
	C286.250763,687.094971 278.491699,695.684326 270.161102,704.690125 
	C260.269104,715.468750 250.314316,726.190857 240.522156,737.059448 
	C237.466064,740.451355 232.838058,744.020874 232.418793,747.887451 
	C231.286545,758.329529 232.031250,768.975098 232.031250,781.028503 
	C246.581863,765.085571 260.156769,750.211731 274.266693,735.013184 
	C281.526093,727.049316 288.785492,719.085510 296.638489,710.797424 
	C304.757263,701.860046 312.876007,692.922607 321.606384,683.710693 
	C330.253967,674.224182 338.901550,664.737671 348.095306,654.919495 
z"/>
<path fill="#2C52A5" opacity="1.000000" stroke="none" 
	d="
M933.479736,147.950409 
	C940.578674,145.356812 947.677612,142.763199 956.054871,139.702560 
	C954.633728,143.736313 953.636597,146.566711 952.161499,149.875778 
	C951.464783,150.938812 951.246033,151.523178 951.027222,152.107544 
	C951.027222,152.107544 951.059204,151.959366 950.825806,152.142120 
	C946.453064,159.315033 942.206116,166.244064 938.196289,173.307709 
	C929.007874,189.493820 919.935181,205.745605 910.550537,222.173416 
	C909.795410,223.043518 909.231812,223.669235 908.825562,224.384338 
	C886.546387,263.603760 864.266235,302.822662 842.022095,342.061951 
	C835.627625,353.341827 829.341003,364.682861 822.721680,376.185974 
	C821.323425,378.187714 820.149231,379.965942 819.102661,381.816376 
	C811.720459,394.868988 804.364441,407.936401 796.824707,421.292450 
	C790.683289,431.890350 784.658752,442.161774 778.782043,452.517029 
	C776.669922,456.238647 774.913696,460.162231 772.715759,464.189880 
	C764.295471,478.594421 756.154541,492.802734 747.838257,507.304321 
	C739.434570,522.059204 731.206299,536.520752 722.738220,551.222778 
	C715.368530,563.990295 708.238586,576.517334 700.931885,589.341003 
	C694.797302,600.398499 688.839478,611.159302 682.611572,622.124878 
	C678.176819,629.464661 673.917969,636.546631 669.868835,643.746460 
	C663.142273,655.707214 656.550232,667.743774 649.647949,679.987061 
	C643.467224,690.428833 637.575378,700.652649 631.602722,710.828979 
	C625.889893,720.562561 620.093018,730.246826 614.037476,739.768188 
	C613.329285,739.065369 612.854919,738.584778 612.513123,738.023438 
	C589.339355,699.966553 566.141724,661.924194 543.041870,623.822510 
	C538.491943,616.317749 534.322632,608.582214 530.277344,600.808350 
	C536.410767,594.267456 542.241577,587.868408 548.079102,581.475586 
	C573.906555,553.191528 599.763672,524.934509 625.557617,496.620056 
	C657.853882,461.167969 690.078003,425.650116 722.372803,390.196625 
	C748.051086,362.006744 773.803040,333.883820 799.496887,305.708038 
	C836.632690,264.984924 873.767273,224.260666 910.842346,183.482224 
	C915.726379,178.110260 920.256226,172.416290 924.964905,166.916565 
	C924.979675,166.961655 924.889038,166.989731 925.202515,166.843933 
	C925.678223,166.271606 925.840393,165.845093 925.977356,165.182678 
	C925.970581,164.784943 926.046265,164.599274 925.991577,164.467941 
	C925.936157,164.335052 925.703552,164.140091 925.630859,164.170319 
	C924.114929,164.800262 922.568359,165.375839 921.110901,166.124130 
	C909.880737,171.890121 898.668213,177.690643 887.302734,183.309906 
	C886.761353,183.079254 886.367371,183.019165 885.600037,182.980804 
	C883.079895,183.874313 880.838257,184.566986 878.801697,185.646652 
	C864.974731,192.977051 851.222717,200.449005 837.386902,207.762497 
	C806.620361,224.025452 775.837646,240.257904 745.026245,256.435638 
	C715.536987,271.919128 685.976379,287.266693 656.511780,302.796600 
	C650.531311,305.948730 644.839233,309.647949 639.014343,313.061279 
	C639.014526,313.027557 639.079834,313.044128 638.781189,313.087372 
	C637.985596,313.449707 637.488647,313.768829 637.005005,314.052277 
	C637.018311,314.016602 637.089294,314.044189 636.728394,314.088776 
	C633.680725,315.838379 630.993835,317.543396 628.062744,319.497986 
	C533.274719,369.369232 438.723145,418.976318 344.194489,468.626984 
	C328.315186,476.967560 312.535065,485.497040 296.709106,493.939209 
	C294.954773,493.602631 293.069733,493.569427 291.467651,492.879364 
	C282.379181,488.964539 273.358429,484.892517 264.408081,480.523865 
	C269.628662,477.780121 274.806030,475.488007 279.875061,472.977112 
	C323.755035,451.242096 367.615723,429.468079 411.481781,407.704987 
	C454.453583,386.385559 497.425568,365.066650 540.396240,343.744995 
	C584.558838,321.831879 628.720154,299.916016 672.881653,278.000702 
	C715.700378,256.751801 758.523254,235.511444 801.335754,214.249985 
	C842.063354,194.023849 882.786682,173.789047 923.485046,153.504288 
	C926.099548,152.201172 928.483582,150.435669 930.974792,148.885284 
	C930.974792,148.885284 930.998108,148.948288 931.315186,148.954834 
	C932.248108,148.624405 932.863953,148.287399 933.479736,147.950409 
z"/>
<path fill="#3372F6" opacity="1.000000" stroke="none" 
	d="
M930.583374,148.835052 
	C928.483582,150.435669 926.099548,152.201172 923.485046,153.504288 
	C882.786682,173.789047 842.063354,194.023849 801.335754,214.249985 
	C758.523254,235.511444 715.700378,256.751801 672.881653,278.000702 
	C628.720154,299.916016 584.558838,321.831879 540.396240,343.744995 
	C497.425568,365.066650 454.453583,386.385559 411.481781,407.704987 
	C367.615723,429.468079 323.755035,451.242096 279.875061,472.977112 
	C274.806030,475.488007 269.628662,477.780121 264.139160,480.305603 
	C246.389175,472.885590 228.977097,465.389404 211.619644,457.768768 
	C185.269089,446.199860 158.955536,434.546661 132.629974,422.920868 
	C131.000092,422.201050 129.402496,421.408112 126.630165,420.103363 
	C134.280945,417.476532 140.808487,415.202606 147.357285,412.991699 
	C284.916504,366.551392 422.483307,320.133453 560.037781,273.679047 
	C682.468689,232.332123 804.886292,190.945923 927.312256,149.584320 
	C928.254639,149.265945 929.231323,149.049072 930.583374,148.835052 
z"/>
<path fill="#193863" opacity="1.000000" stroke="none" 
	d="
M529.977844,600.953125 
	C534.322632,608.582214 538.491943,616.317749 543.041870,623.822510 
	C566.141724,661.924194 589.339355,699.966553 612.513123,738.023438 
	C612.854919,738.584778 613.329285,739.065369 613.970642,740.158264 
	C614.756775,742.558838 615.001648,744.562866 615.923706,746.180969 
	C620.658020,754.488403 625.632690,762.659058 630.354858,770.973206 
	C631.234802,772.522522 631.344666,774.509216 631.809937,776.294067 
	C622.287415,763.917786 612.661804,751.619263 603.261108,739.151123 
	C570.175659,695.269958 537.167603,651.330444 504.128326,607.414429 
	C503.537323,606.628967 502.922729,605.861267 501.971832,604.638672 
	C464.502167,635.479065 427.171967,666.204651 389.012604,697.612671 
	C389.012604,634.749023 389.012604,572.851074 389.357727,510.408661 
	C390.839417,509.169312 391.985687,508.489807 393.111176,507.777374 
	C547.281067,410.185089 701.444031,312.581848 855.627991,215.011795 
	C867.984924,207.192154 880.486023,199.600357 892.910828,192.254318 
	C891.742432,193.971298 890.761108,195.554352 889.396729,196.668167 
	C876.124146,207.503418 862.767639,218.235794 849.473328,229.044571 
	C824.690491,249.193863 799.942383,269.385895 775.162292,289.538696 
	C755.416199,305.597534 735.627197,321.603577 715.887756,337.670624 
	C689.569275,359.092682 663.298462,380.573425 636.972839,401.986694 
	C616.972107,418.255310 596.892944,434.427490 576.893738,450.697937 
	C553.804688,469.482147 530.757874,488.318237 507.708160,507.150726 
	C499.903870,513.527100 492.146576,519.961060 484.059814,526.622375 
	C499.553192,551.702576 514.765503,576.327820 529.977844,600.953125 
z"/>
<path fill="#B0B1B6" opacity="1.000000" stroke="none" 
	d="
M892.920105,191.902679 
	C880.486023,199.600357 867.984924,207.192154 855.627991,215.011795 
	C701.444031,312.581848 547.281067,410.185089 393.111176,507.777374 
	C391.985687,508.489807 390.839417,509.169312 389.364410,509.941193 
	C358.513641,504.765350 328.001343,499.512482 297.099060,494.099426 
	C312.535065,485.497040 328.315186,476.967560 344.194489,468.626984 
	C438.723145,418.976318 533.274719,369.369232 628.398193,319.402771 
	C631.681641,317.386719 634.385498,315.715454 637.089294,314.044189 
	C637.089294,314.044189 637.018311,314.016602 637.323242,314.027313 
	C638.112061,313.706726 638.595947,313.375427 639.079834,313.044128 
	C639.079834,313.044128 639.014526,313.027557 639.390137,313.032928 
	C641.285461,312.392426 642.858948,311.849182 644.317322,311.085876 
	C708.299316,277.594971 772.281799,244.104919 836.236877,210.562607 
	C852.882507,201.832550 869.438721,192.931961 886.276184,184.072372 
	C886.847534,183.947800 887.096985,183.754929 887.307617,183.489288 
	C887.350464,183.522095 887.450195,183.480423 887.450195,183.480438 
	C898.668213,177.690643 909.880737,171.890121 921.110901,166.124130 
	C922.568359,165.375839 924.114929,164.800262 925.630859,164.170319 
	C925.703552,164.140091 925.936157,164.335052 925.991577,164.467941 
	C926.046265,164.599274 925.970581,164.784943 925.650513,165.345093 
	C925.195557,166.158844 925.042297,166.574280 924.889038,166.989716 
	C924.889038,166.989731 924.979675,166.961655 924.612183,166.838379 
	C917.134460,172.505692 910.024353,178.296265 902.690002,184.115448 
	C902.162537,184.474915 901.859314,184.805756 901.411621,185.191498 
	C901.267212,185.246368 901.094116,185.502289 900.871338,185.614883 
	C900.350586,186.104370 900.052551,186.481247 899.563477,186.926712 
	C899.372498,186.995285 899.076294,187.272827 898.829956,187.301392 
	C898.226868,187.669250 897.870056,188.008545 897.457764,188.350037 
	C897.402283,188.352234 897.369629,188.458420 897.127686,188.584717 
	C896.545593,189.107193 896.205505,189.503372 895.905396,189.915222 
	C895.945435,189.930878 895.908264,189.853409 895.590942,189.898804 
	C894.487854,190.607056 893.702026,191.269913 892.930908,191.931686 
	C892.945557,191.930618 892.920105,191.902679 892.920105,191.902679 
z"/>
<path fill="#214A90" opacity="1.000000" stroke="none" 
	d="
M823.004883,375.995850 
	C829.341003,364.682861 835.627625,353.341827 842.022095,342.061951 
	C864.266235,302.822662 886.546387,263.603760 908.825562,224.384338 
	C909.231812,223.669235 909.795410,223.043518 910.805542,222.480942 
	C911.435425,224.516098 911.435913,226.460114 911.675293,228.374222 
	C912.457825,234.630096 913.327271,240.875092 914.163330,247.124268 
	C909.856750,258.345612 905.579956,269.578552 901.236938,280.785797 
	C893.579529,300.545898 885.888611,320.293060 878.198914,340.040680 
	C869.615845,362.082458 861.015747,384.117615 852.428589,406.157776 
	C847.175049,419.641754 841.965271,433.142914 836.673645,446.611938 
	C832.468140,457.316467 828.168213,467.983887 823.287415,478.768951 
	C822.511536,476.996643 822.081848,475.093079 822.281677,473.258026 
	C822.489441,471.350677 823.784424,469.505554 823.768738,467.640259 
	C823.715759,461.345947 823.073547,455.055634 823.048462,448.762207 
	C822.951538,424.507080 823.006531,400.251343 823.004883,375.995850 
z"/>
<path fill="#2E68DB" opacity="1.000000" stroke="none" 
	d="
M649.901550,679.748352 
	C656.550232,667.743774 663.142273,655.707214 669.868835,643.746460 
	C673.917969,636.546631 678.176819,629.464661 682.976990,622.299438 
	C684.075012,624.446228 684.936890,626.622559 684.940979,628.800415 
	C685.020386,671.458313 684.999939,714.116516 685.000061,756.774597 
	C685.000183,777.437134 684.984558,798.099609 685.019409,818.762085 
	C685.024353,821.700500 684.508728,824.999756 688.475159,826.133057 
	C685.589905,833.646545 682.704712,841.160034 679.530823,849.425354 
	C669.439270,832.954712 659.726685,817.102417 650.002563,800.504639 
	C650.662354,794.347839 651.881714,788.939941 651.914246,783.524902 
	C652.100403,752.473633 652.072205,721.420288 651.912354,690.368774 
	C651.894165,686.825256 650.602661,683.288330 649.901550,679.748352 
z"/>
<path fill="#2B61CB" opacity="1.000000" stroke="none" 
	d="
M701.108643,589.044373 
	C708.238586,576.517334 715.368530,563.990295 723.094849,551.315430 
	C724.794067,554.431030 726.845093,557.690735 726.857971,560.958374 
	C727.060059,612.414246 726.975769,663.871277 727.081909,715.327698 
	C727.086487,717.551208 728.289001,719.772217 728.933472,721.994385 
	C724.182983,734.298279 719.447449,746.608032 714.675903,758.903748 
	C712.111206,765.512512 709.484619,772.097290 706.276611,778.702271 
	C705.113342,777.053467 704.151306,775.412170 704.081909,773.733948 
	C703.870117,768.608521 704.000305,763.468994 704.000244,758.334900 
	C703.999695,705.582825 704.057373,652.830505 703.875244,600.079041 
	C703.862549,596.397644 702.072266,592.722473 701.108643,589.044373 
z"/>
<path fill="#295DC1" opacity="1.000000" stroke="none" 
	d="
M729.094177,721.657471 
	C728.289001,719.772217 727.086487,717.551208 727.081909,715.327698 
	C726.975769,663.871277 727.060059,612.414246 726.857971,560.958374 
	C726.845093,557.690735 724.794067,554.431030 723.334595,551.075012 
	C731.206299,536.520752 739.434570,522.059204 748.212097,507.342712 
	C752.813782,508.833679 751.967224,512.529785 751.958130,515.684692 
	C751.822327,562.638062 751.598389,609.591187 751.487671,656.544556 
	C751.485779,657.388062 752.617371,658.234192 753.220093,659.079102 
	C748.998108,670.402100 744.861145,681.757812 740.527893,693.038086 
	C736.888916,702.511169 733.021301,711.896362 729.094177,721.657471 
z"/>
<path fill="#2C65D4" opacity="1.000000" stroke="none" 
	d="
M700.931885,589.341003 
	C702.072266,592.722473 703.862549,596.397644 703.875244,600.079041 
	C704.057373,652.830505 703.999695,705.582825 704.000244,758.334900 
	C704.000305,763.468994 703.870117,768.608521 704.081909,773.733948 
	C704.151306,775.412170 705.113342,777.053467 706.003418,778.936523 
	C702.666565,789.071350 699.023926,798.992798 695.308594,808.886963 
	C693.214844,814.463013 691.001404,819.994080 688.658569,825.839233 
	C684.508728,824.999756 685.024353,821.700500 685.019409,818.762085 
	C684.984558,798.099609 685.000183,777.437134 685.000061,756.774597 
	C684.999939,714.116516 685.020386,671.458313 684.940979,628.800415 
	C684.936890,626.622559 684.075012,624.446228 683.247131,622.094666 
	C688.839478,611.159302 694.797302,600.398499 700.931885,589.341003 
z"/>
<path fill="#2859B6" opacity="1.000000" stroke="none" 
	d="
M753.512817,658.875610 
	C752.617371,658.234192 751.485779,657.388062 751.487671,656.544556 
	C751.598389,609.591187 751.822327,562.638062 751.958130,515.684692 
	C751.967224,512.529785 752.813782,508.833679 748.387512,507.049469 
	C756.154541,492.802734 764.295471,478.594421 773.067383,464.318237 
	C774.465454,466.805695 775.891907,469.358673 775.901062,471.916687 
	C776.042542,511.456970 775.978394,550.997986 776.048950,590.538635 
	C776.053589,593.139038 776.760681,595.738098 777.140930,598.337830 
	C769.785095,617.373535 762.429504,636.409424 755.072632,655.444702 
	C754.656006,656.522705 754.228149,657.596375 753.512817,658.875610 
z"/>
<path fill="#2655AC" opacity="1.000000" stroke="none" 
	d="
M777.418091,598.060791 
	C776.760681,595.738098 776.053589,593.139038 776.048950,590.538635 
	C775.978394,550.997986 776.042542,511.456970 775.901062,471.916687 
	C775.891907,469.358673 774.465454,466.805695 773.346680,464.122009 
	C774.913696,460.162231 776.669922,456.238647 778.782043,452.517029 
	C784.658752,442.161774 790.683289,431.890350 797.194580,421.393372 
	C798.491760,422.880035 799.879089,424.559875 799.877258,426.238159 
	C799.871582,431.371307 799.061829,436.502991 799.044861,441.636841 
	C798.951050,469.943542 798.926086,498.251129 799.098145,526.557068 
	C799.118530,529.918457 800.483765,533.271606 801.225586,536.628540 
	C795.174011,552.210571 789.107605,567.786926 783.079407,583.377991 
	C781.230896,588.159119 779.487000,592.980774 777.418091,598.060791 
z"/>
<path fill="#2451A2" opacity="1.000000" stroke="none" 
	d="
M801.482666,536.323853 
	C800.483765,533.271606 799.118530,529.918457 799.098145,526.557068 
	C798.926086,498.251129 798.951050,469.943542 799.044861,441.636841 
	C799.061829,436.502991 799.871582,431.371307 799.877258,426.238159 
	C799.879089,424.559875 798.491760,422.880035 797.369873,421.100006 
	C804.364441,407.936401 811.720459,394.868988 819.102661,381.816376 
	C820.149231,379.965942 821.323425,378.187714 822.721680,376.185944 
	C823.006531,400.251343 822.951538,424.507080 823.048462,448.762207 
	C823.073547,455.055634 823.715759,461.345947 823.768738,467.640259 
	C823.784424,469.505554 822.489441,471.350677 822.281677,473.258026 
	C822.081848,475.093079 822.511536,476.996643 823.017090,479.003815 
	C819.520813,489.546814 815.739258,499.981628 811.802490,510.357483 
	C808.543335,518.947449 805.100952,527.467896 801.482666,536.323853 
z"/>
<path fill="#306EEB" opacity="1.000000" stroke="none" 
	d="
M649.647949,679.987061 
	C650.602661,683.288330 651.894165,686.825256 651.912354,690.368774 
	C652.072205,721.420288 652.100403,752.473633 651.914246,783.524902 
	C651.881714,788.939941 650.662354,794.347839 649.885925,800.205811 
	C645.542053,795.007385 641.303406,789.362122 637.059143,783.173828 
	C636.677185,782.416870 636.300781,782.202820 635.924438,781.988831 
	C635.924438,781.988831 636.002197,782.000122 636.012451,781.704163 
	C635.627747,780.949768 635.232727,780.491272 634.837769,780.032837 
	C634.837769,780.032837 634.948242,780.041870 634.928589,779.781982 
	C634.568176,779.361206 634.227417,779.200256 633.886658,779.039307 
	C633.886658,779.039307 633.956970,779.032227 634.074951,778.700317 
	C633.409302,777.618469 632.625671,776.868591 631.842041,776.118652 
	C631.842041,776.118652 631.911499,776.222046 631.860718,776.258057 
	C631.344666,774.509216 631.234802,772.522522 630.354858,770.973206 
	C625.632690,762.659058 620.658020,754.488403 615.923706,746.180969 
	C615.001648,744.562866 614.756775,742.558838 614.266357,740.342773 
	C620.093018,730.246826 625.889893,720.562561 631.602722,710.828979 
	C637.575378,700.652649 643.467224,690.428833 649.647949,679.987061 
z"/>
<path fill="#193863" opacity="1.000000" stroke="none" 
	d="
M914.412598,246.861008 
	C913.327271,240.875092 912.457825,234.630096 911.675293,228.374222 
	C911.435913,226.460114 911.435425,224.516098 911.070496,222.278259 
	C919.935181,205.745605 929.007874,189.493820 938.196289,173.307709 
	C942.206116,166.244064 946.453064,159.315033 950.899902,152.158005 
	C944.921509,168.387878 938.666870,184.796722 932.340576,201.177856 
	C926.487610,216.333252 920.557861,231.458969 914.412598,246.861008 
z"/>
<path fill="#193863" opacity="1.000000" stroke="none" 
	d="
M631.814453,776.446533 
	C632.625671,776.868591 633.409302,777.618469 634.061035,778.732788 
	C633.215088,778.322876 632.500977,777.548645 631.814453,776.446533 
z"/>
<path fill="#3372F6" opacity="1.000000" stroke="none" 
	d="
M933.104004,147.939789 
	C932.863953,148.287399 932.248108,148.624405 931.281799,148.951508 
	C931.530273,148.604141 932.129333,148.266647 933.104004,147.939789 
z"/>
<path fill="#193863" opacity="1.000000" stroke="none" 
	d="
M951.326660,151.955963 
	C951.246033,151.523178 951.464783,150.938812 951.878357,150.098953 
	C951.924072,150.497116 951.775024,151.150757 951.326660,151.955963 
z"/>
<path fill="#193863" opacity="1.000000" stroke="none" 
	d="
M634.793579,780.353516 
	C635.232727,780.491272 635.627747,780.949768 636.007080,781.743042 
	C635.577454,781.609985 635.163391,781.142090 634.793579,780.353516 
z"/>
<path fill="#193863" opacity="1.000000" stroke="none" 
	d="
M633.928040,779.341003 
	C634.227417,779.200256 634.568176,779.361206 634.922729,779.837158 
	C634.614136,779.982300 634.291748,779.812500 633.928040,779.341003 
z"/>
<path fill="#193863" opacity="1.000000" stroke="none" 
	d="
M636.041321,782.344543 
	C636.300781,782.202820 636.677185,782.416870 637.274048,782.893188 
	C637.049072,783.003723 636.603638,782.851990 636.041321,782.344543 
z"/>
<path fill="#DA9433" opacity="1.000000" stroke="none" 
	d="
M484.119446,740.315918 
	C472.191437,752.546936 460.294922,764.808838 448.324921,776.998596 
	C439.486786,785.999023 430.552917,794.905396 421.275574,803.604431 
	C420.927032,799.578613 420.995148,795.802124 420.997070,792.025574 
	C421.007751,771.200867 421.109985,750.375000 420.902496,729.552368 
	C420.865448,725.832458 419.522980,722.125549 418.783264,718.412598 
	C427.958282,708.993408 437.083038,699.524597 446.320831,690.167297 
	C458.256165,678.077637 470.281860,666.077026 482.733154,654.222900 
	C484.131378,658.013672 485.782196,661.602173 485.870453,665.228699 
	C486.194244,678.534424 486.241486,691.858459 485.925873,705.164612 
	C485.647797,716.889404 484.745911,728.599365 484.119446,740.315918 
z"/>
<path fill="#D38C2E" opacity="1.000000" stroke="none" 
	d="
M418.489563,718.603638 
	C419.522980,722.125549 420.865448,725.832458 420.902496,729.552368 
	C421.109985,750.375000 421.007751,771.200867 420.997070,792.025574 
	C420.995148,795.802124 420.927032,799.578613 420.970215,803.749268 
	C409.071259,816.400879 397.091522,828.658386 384.471405,840.853149 
	C383.221100,838.828186 382.091644,836.868835 382.080780,834.903320 
	C381.956085,812.300049 381.971924,789.695740 382.053711,767.092102 
	C382.060608,765.186157 382.291443,762.911621 383.328552,761.457642 
	C385.330170,758.651672 384.187256,757.270325 381.839111,755.933472 
	C393.958008,743.553894 406.076904,731.174316 418.489563,718.603638 
z"/>
<path fill="#C97F29" opacity="1.000000" stroke="none" 
	d="
M347.051636,879.132690 
	C334.985748,891.483643 322.919830,903.834656 310.377197,915.948242 
	C309.600403,913.427429 309.053558,911.145264 309.040558,908.860107 
	C308.960236,894.739136 309.048431,880.617249 308.985260,866.496094 
	C308.931030,854.375122 308.749359,842.254639 308.624023,830.133972 
	C320.394318,818.105469 332.164581,806.076965 344.508362,794.205017 
	C345.387848,796.620483 345.928650,798.875793 345.964081,801.138916 
	C346.370941,827.136169 346.701080,853.134583 347.051636,879.132690 
z"/>
<path fill="#CE852C" opacity="1.000000" stroke="none" 
	d="
M347.357910,878.990601 
	C346.701080,853.134583 346.370941,827.136169 345.964081,801.138916 
	C345.928650,798.875793 345.387848,796.620483 344.779724,794.030396 
	C356.731873,781.202087 368.986053,768.705078 381.539673,756.070801 
	C384.187256,757.270325 385.330170,758.651672 383.328552,761.457642 
	C382.291443,762.911621 382.060608,765.186157 382.053711,767.092102 
	C381.971924,789.695740 381.956085,812.300049 382.080780,834.903320 
	C382.091644,836.868835 383.221100,838.828186 384.196655,841.015198 
	C372.262878,853.776184 359.963531,866.312378 347.357910,878.990601 
z"/>
<path fill="#C47927" opacity="1.000000" stroke="none" 
	d="
M308.320740,830.316040 
	C308.749359,842.254639 308.931030,854.375122 308.985260,866.496094 
	C309.048431,880.617249 308.960236,894.739136 309.040558,908.860107 
	C309.053558,911.145264 309.600403,913.427429 310.083801,916.130798 
	C304.942657,922.043640 299.702484,927.623169 294.225647,932.959778 
	C293.069275,934.086548 291.094086,934.674194 289.412872,934.905945 
	C283.976044,935.655396 278.500458,936.123535 272.567535,936.200562 
	C272.729919,930.615906 273.796783,925.540649 273.912567,920.443726 
	C274.183777,908.501892 274.263031,896.541260 273.883850,884.605286 
	C273.704559,878.962341 272.294250,873.358398 271.441711,867.736816 
	C283.633636,855.323914 295.825531,842.911011 308.320740,830.316040 
z"/>
<path fill="#BE7224" opacity="1.000000" stroke="none" 
	d="
M271.170959,867.903564 
	C272.294250,873.358398 273.704559,878.962341 273.883850,884.605286 
	C274.263031,896.541260 274.183777,908.501892 273.912567,920.443726 
	C273.796783,925.540649 272.729919,930.615906 272.115356,936.160645 
	C247.138046,939.294067 222.140640,941.967834 197.143250,944.641663 
	C196.970520,944.248108 196.797775,943.854614 196.625046,943.461060 
	C201.412552,938.521179 206.157486,933.539246 210.995316,928.649170 
	C227.596451,911.868530 244.234360,895.124268 260.847809,878.355774 
	C264.221893,874.950317 267.550568,871.499878 271.170959,867.903564 
z"/>
<path fill="#E19D36" opacity="1.000000" stroke="none" 
	d="
M484.422729,740.154907 
	C484.745911,728.599365 485.647797,716.889404 485.925873,705.164612 
	C486.241486,691.858459 486.194244,678.534424 485.870453,665.228699 
	C485.782196,661.602173 484.131378,658.013672 483.031799,654.059998 
	C487.140747,649.124023 491.415558,644.535767 496.187195,639.414185 
	C509.101532,656.332642 521.634399,672.751404 534.454102,689.545837 
	C517.777954,706.463440 501.251984,723.228699 484.422729,740.154907 
z"/>
<path fill="#BE7224" opacity="1.000000" stroke="none" 
	d="
M225.013321,856.038696 
	C212.987305,869.247681 200.961304,882.456665 188.935318,895.665649 
	C188.468033,895.470825 188.000763,895.276001 187.533478,895.081177 
	C188.396896,890.725647 189.200150,886.357056 190.136536,882.017273 
	C191.956329,873.583313 194.144516,865.215820 195.603195,856.721741 
	C196.464844,851.704163 198.617538,847.847046 202.102661,844.268799 
	C209.038254,837.148010 215.684784,829.745789 222.732788,822.700867 
	C223.144058,825.394958 223.872177,827.999573 223.296600,830.274231 
	C221.060974,839.109070 221.537094,847.643494 225.013321,856.038696 
z"/>
<path fill="#D38C2E" opacity="1.000000" stroke="none" 
	d="
M279.710510,760.855774 
	C289.501892,750.128906 299.293274,739.402039 309.555969,728.906128 
	C310.349915,730.914062 310.922729,732.687073 310.950897,734.468628 
	C311.061035,741.430420 310.872314,748.398743 311.080963,755.356079 
	C311.140503,757.342468 312.166779,759.299866 312.749756,761.270569 
	C302.774811,772.106262 292.799835,782.941895 282.230408,793.746277 
	C280.810638,790.987427 279.245239,788.242859 279.307159,785.535522 
	C279.456665,778.998901 280.480011,772.486877 280.890869,765.948547 
	C280.995575,764.282288 280.130157,762.554993 279.710510,760.855774 
z"/>
<path fill="#C47927" opacity="1.000000" stroke="none" 
	d="
M225.312561,855.884766 
	C221.537094,847.643494 221.060974,839.109070 223.296600,830.274231 
	C223.872177,827.999573 223.144058,825.394958 223.022583,822.537415 
	C232.377686,811.904053 241.725021,801.675232 251.437576,791.766846 
	C250.584305,803.325134 251.123459,814.489197 253.209839,825.588257 
	C244.010498,835.635742 234.811142,845.683228 225.312561,855.884766 
z"/>
<path fill="#CE852C" opacity="1.000000" stroke="none" 
	d="
M253.512146,825.407166 
	C251.123459,814.489197 250.584305,803.325134 251.743240,791.578247 
	C260.832245,781.097900 269.980804,771.126465 279.419922,761.005371 
	C280.130157,762.554993 280.995575,764.282288 280.890869,765.948547 
	C280.480011,772.486877 279.456665,778.998901 279.307159,785.535522 
	C279.245239,788.242859 280.810638,790.987427 281.954865,793.922241 
	C272.787354,804.494934 263.300903,814.860474 253.512146,825.407166 
z"/>
<path fill="#DA9433" opacity="1.000000" stroke="none" 
	d="
M312.992432,761.078857 
	C312.166779,759.299866 311.140503,757.342468 311.080963,755.356079 
	C310.872314,748.398743 311.061035,741.430420 310.950897,734.468628 
	C310.922729,732.687073 310.349915,730.914062 309.841492,728.703735 
	C318.525787,718.593262 327.395935,708.916260 336.916321,699.243286 
	C338.164673,703.019409 339.026581,706.772095 339.303741,710.567627 
	C339.811981,717.527466 336.366547,724.662354 340.230133,731.489197 
	C331.231812,741.288513 322.233459,751.087769 312.992432,761.078857 
z"/>
<path fill="#E19D36" opacity="1.000000" stroke="none" 
	d="
M340.509827,731.286560 
	C336.366547,724.662354 339.811981,717.527466 339.303741,710.567627 
	C339.026581,706.772095 338.164673,703.019409 337.214447,699.097046 
	C346.207550,688.675842 355.552734,678.404846 364.897888,668.133911 
	C365.301727,668.249817 365.705597,668.365784 366.109436,668.481689 
	C366.109436,674.840088 365.470825,681.277710 366.248322,687.539490 
	C367.671509,699.001648 364.410919,707.997192 355.454468,715.509277 
	C350.028748,720.060120 345.642670,725.850464 340.509827,731.286560 
z"/>
<path fill="#BE7224" opacity="1.000000" stroke="none" 
	d="
M187.714127,896.273560 
	C187.763977,896.565063 187.650803,896.679077 187.537628,896.793091 
	C187.428970,896.674805 187.233704,896.554688 187.236038,896.438660 
	C187.238358,896.322388 187.437958,896.210083 187.714127,896.273560 
z"/>
<path fill="#BE7224" opacity="1.000000" stroke="none" 
	d="
M273.731659,735.337891 
	C260.156769,750.211731 246.581863,765.085571 232.031250,781.028503 
	C232.031250,768.975098 231.286545,758.329529 232.418793,747.887451 
	C232.838058,744.020874 237.466064,740.451355 240.522156,737.059448 
	C250.314316,726.190857 260.269104,715.468750 270.495911,704.949707 
	C270.887512,713.131958 270.756897,721.063416 271.124176,728.971619 
	C271.224365,731.129456 272.821503,733.217712 273.731659,735.337891 
z"/>
<path fill="#D38C2E" opacity="1.000000" stroke="none" 
	d="
M320.994751,683.985168 
	C312.876007,692.922607 304.757263,701.860046 296.253235,710.542480 
	C295.580688,707.835205 295.107269,705.388000 295.039978,702.929688 
	C294.813721,694.660583 294.732025,686.387451 294.595032,678.115906 
	C302.758118,668.966309 310.921204,659.816711 319.555115,650.896423 
	C320.351318,653.213074 320.933319,655.297424 320.957489,657.388184 
	C321.060150,666.252869 320.997192,675.119324 320.994751,683.985168 
z"/>
<path fill="#DA9433" opacity="1.000000" stroke="none" 
	d="
M321.300537,683.847900 
	C320.997192,675.119324 321.060150,666.252869 320.957489,657.388184 
	C320.933319,655.297424 320.351318,653.213074 319.839966,650.691650 
	C327.845642,641.169800 336.037323,632.082031 344.695923,623.218750 
	C345.441956,631.869995 345.631561,640.301453 346.061157,648.720581 
	C346.173248,650.916992 347.032837,653.075317 347.549133,655.251099 
	C338.901550,664.737671 330.253967,674.224182 321.300537,683.847900 
z"/>
<path fill="#C97F29" opacity="1.000000" stroke="none" 
	d="
M294.302429,678.310791 
	C294.732025,686.387451 294.813721,694.660583 295.039978,702.929688 
	C295.107269,705.388000 295.580688,707.835205 295.956451,710.704590 
	C288.785492,719.085510 281.526093,727.049316 273.999176,735.175537 
	C272.821503,733.217712 271.224365,731.129456 271.124176,728.971619 
	C270.756897,721.063416 270.887512,713.131958 270.781677,704.741455 
	C278.491699,695.684326 286.250763,687.094971 294.302429,678.310791 
z"/>
<path fill="#E19D36" opacity="1.000000" stroke="none" 
	d="
M347.822205,655.085327 
	C347.032837,653.075317 346.173248,650.916992 346.061157,648.720581 
	C345.631561,640.301453 345.441956,631.869995 344.983856,623.035706 
	C351.486206,615.076050 358.167511,607.523865 364.848785,599.971741 
	C365.269135,600.084473 365.689453,600.197205 366.109802,600.309937 
	C366.109802,605.846619 365.496674,611.466064 366.231354,616.903503 
	C368.023132,630.164673 364.301392,640.892456 353.544800,649.114441 
	C351.464600,650.704529 349.898529,652.967102 347.822205,655.085327 
z"/>
<path fill="#07192F" opacity="1.000000" stroke="none" 
	d="
M899.076294,187.272827 
	C899.076294,187.272827 899.372498,186.995285 899.843994,186.889908 
	C900.575012,186.357101 900.834534,185.929688 901.094116,185.502289 
	C901.094116,185.502289 901.267212,185.246368 901.659912,185.225433 
	C902.339783,184.831940 902.627014,184.459396 902.914246,184.086853 
	C910.024353,178.296265 917.134460,172.505692 924.597412,166.793304 
	C920.256226,172.416290 915.726379,178.110260 910.842346,183.482224 
	C873.767273,224.260666 836.632690,264.984924 799.496887,305.708038 
	C773.803040,333.883820 748.051086,362.006744 722.372803,390.196625 
	C690.078003,425.650116 657.853882,461.167969 625.557617,496.620056 
	C599.763672,524.934509 573.906555,553.191528 548.079102,581.475586 
	C542.241577,587.868408 536.410767,594.267456 530.277344,600.808350 
	C514.765503,576.327820 499.553192,551.702576 484.059814,526.622375 
	C492.146576,519.961060 499.903870,513.527100 507.708160,507.150726 
	C530.757874,488.318237 553.804688,469.482147 576.893738,450.697937 
	C596.892944,434.427490 616.972107,418.255310 636.972839,401.986694 
	C663.298462,380.573425 689.569275,359.092682 715.887756,337.670624 
	C735.627197,321.603577 755.416199,305.597534 775.162292,289.538696 
	C799.942383,269.385895 824.690491,249.193863 849.473328,229.044571 
	C862.767639,218.235794 876.124146,207.503418 889.396729,196.668167 
	C890.761108,195.554352 891.742432,193.971298 892.910828,192.254333 
	C892.920105,191.902679 892.945557,191.930618 893.282715,191.958130 
	C894.382690,191.274887 895.145447,190.564148 895.908264,189.853409 
	C895.908264,189.853409 895.945435,189.930878 896.211060,189.885559 
	C896.774353,189.379623 897.071960,188.919022 897.369629,188.458420 
	C897.369629,188.458420 897.402283,188.352234 897.733154,188.399933 
	C898.401428,188.056046 898.738831,187.664429 899.076294,187.272827 
z"/>
<path fill="#214A90" opacity="1.000000" stroke="none" 
	d="
M886.035950,184.109680 
	C869.438721,192.931961 852.882507,201.832550 836.236877,210.562607 
	C772.281799,244.104919 708.299316,277.594971 644.317322,311.085876 
	C642.858948,311.849182 641.285461,312.392426 639.389893,313.066650 
	C644.839233,309.647949 650.531311,305.948730 656.511780,302.796600 
	C685.976379,287.266693 715.536987,271.919128 745.026245,256.435638 
	C775.837646,240.257904 806.620361,224.025452 837.386902,207.762497 
	C851.222717,200.449005 864.974731,192.977051 878.801697,185.646652 
	C880.838257,184.566986 883.079895,183.874313 885.616638,183.003052 
	C886.006592,183.003555 886.041321,183.046860 886.035156,183.312546 
	C886.031311,183.755386 886.033630,183.932541 886.035950,184.109680 
z"/>
<path fill="#214A90" opacity="1.000000" stroke="none" 
	d="
M636.728394,314.088776 
	C634.385498,315.715454 631.681641,317.386719 628.642395,319.153229 
	C630.993835,317.543396 633.680725,315.838379 636.728394,314.088776 
z"/>
<path fill="#214A90" opacity="1.000000" stroke="none" 
	d="
M638.781189,313.087402 
	C638.595947,313.375427 638.112061,313.706726 637.309875,314.062988 
	C637.488647,313.768829 637.985596,313.449707 638.781189,313.087402 
z"/>
<path fill="#214A90" opacity="1.000000" stroke="none" 
	d="
M885.989990,182.981308 
	C886.367371,183.019165 886.761353,183.079254 887.302734,183.309875 
	C887.450195,183.480423 887.350464,183.522095 887.007935,183.364716 
	C886.457397,183.153839 886.249390,183.100342 886.041321,183.046860 
	C886.041321,183.046860 886.006592,183.003555 885.989990,182.981308 
z"/>
<path fill="#07192F" opacity="1.000000" stroke="none" 
	d="
M925.202515,166.843918 
	C925.042297,166.574280 925.195557,166.158844 925.675659,165.580994 
	C925.840393,165.845093 925.678223,166.271606 925.202515,166.843918 
z"/>
<path fill="#193863" opacity="1.000000" stroke="none" 
	d="
M895.590942,189.898804 
	C895.145447,190.564148 894.382690,191.274887 893.268066,191.959198 
	C893.702026,191.269913 894.487854,190.607056 895.590942,189.898804 
z"/>
<path fill="#193863" opacity="1.000000" stroke="none" 
	d="
M902.690002,184.115463 
	C902.627014,184.459396 902.339783,184.831940 901.804321,185.170547 
	C901.859314,184.805756 902.162537,184.474915 902.690002,184.115463 
z"/>
<path fill="#193863" opacity="1.000000" stroke="none" 
	d="
M900.871338,185.614868 
	C900.834534,185.929688 900.575012,186.357101 900.035034,186.821335 
	C900.052551,186.481247 900.350586,186.104370 900.871338,185.614868 
z"/>
<path fill="#193863" opacity="1.000000" stroke="none" 
	d="
M898.829956,187.301392 
	C898.738831,187.664429 898.401428,188.056046 897.788696,188.397736 
	C897.870056,188.008545 898.226868,187.669250 898.829956,187.301392 
z"/>
<path fill="#193863" opacity="1.000000" stroke="none" 
	d="
M897.127686,188.584717 
	C897.071960,188.919022 896.774353,189.379623 896.171082,189.869904 
	C896.205505,189.503372 896.545593,189.107193 897.127686,188.584717 
z"/>
<path fill="#2C52A5" opacity="1.000000" stroke="none" 
	d="
M886.035156,183.312546 
	C886.249390,183.100342 886.457397,183.153839 886.965088,183.331894 
	C887.096985,183.754929 886.847534,183.947800 886.276184,184.072388 
	C886.033630,183.932541 886.031311,183.755386 886.035156,183.312546 
z"/>
</svg>